<svg width="200" height="200" viewBox="0 0 200 200" fill="none" xmlns="http://www.w3.org/2000/svg">
<path fill-rule="evenodd" clip-rule="evenodd" d="M100 199C154.676 199 199 154.676 199 100C199 45.3238 154.676 1 100 1C45.3238 1 1 45.3238 1 100C1 154.676 45.3238 199 100 199ZM100 200C155.228 200 200 155.228 200 100C200 44.7715 155.228 0 100 0C44.7715 0 0 44.7715 0 100C0 155.228 44.7715 200 100 200Z" fill="#747474"/>
<path fill-rule="evenodd" clip-rule="evenodd" d="M100 3.50861e-08L100 8L99 8L99 0L100 3.50861e-08Z" fill="#747474"/>
<path fill-rule="evenodd" clip-rule="evenodd" d="M8 100H0L0 99H8V100Z" fill="#747474"/>
<path fill-rule="evenodd" clip-rule="evenodd" d="M200 100H192V99H200V100Z" fill="#747474"/>
<path fill-rule="evenodd" clip-rule="evenodd" d="M170 29.9998L165 34.6566L164.318 33.9248L169.318 29.2681L170 29.9998Z" fill="#747474"/>
<path fill-rule="evenodd" clip-rule="evenodd" d="M33.9999 35.0001L28.9999 30.0001L29.707 29.293L34.707 34.293L33.9999 35.0001Z" fill="#747474"/>
<path fill-rule="evenodd" clip-rule="evenodd" d="M29.0001 169L34.0001 164.343L34.6816 165.075L29.6816 169.732L29.0001 169Z" fill="#747474"/>
<path fill-rule="evenodd" clip-rule="evenodd" d="M166 165L171 170L170.293 170.707L165.293 165.707L166 165Z" fill="#747474"/>
<path fill-rule="evenodd" clip-rule="evenodd" d="M100 192L100 200L99 200L99 192L100 192Z" fill="#747474"/>
</svg>
